<svg width="24" height="24" viewBox="0 0 24 24" fill="none" xmlns="http://www.w3.org/2000/svg">
<path d="M21.855 18.482C20.6697 16.5232 20.0293 14.2833 20 11.994V8.006C20 5.88426 19.1571 3.84943 17.6568 2.34914C16.1565 0.848851 14.1217 0.0059967 12 0.0059967C9.87825 0.0059967 7.84342 0.848851 6.34313 2.34914C4.84284 3.84943 3.99999 5.88426 3.99999 8.006V11.988C3.9717 14.2793 3.33125 16.5214 2.14499 18.482C2.05316 18.6336 2.00329 18.807 2.00049 18.9842C1.99769 19.1615 2.04207 19.3363 2.12907 19.4907C2.21607 19.6452 2.34256 19.7738 2.4956 19.8633C2.64863 19.9527 2.82271 19.9999 2.99999 20H21C21.1773 19.9999 21.3513 19.9527 21.5044 19.8633C21.6574 19.7738 21.7839 19.6452 21.8709 19.4907C21.9579 19.3363 22.0023 19.1615 21.9995 18.9842C21.9967 18.807 21.9468 18.6336 21.855 18.482Z" fill="currentColor"/>
<path d="M13.007 23.825C13.4261 23.6757 13.8067 23.435 14.1213 23.1204C14.436 22.8058 14.6766 22.4251 14.826 22.006H9.17398C9.30622 22.3771 9.51026 22.7186 9.77445 23.0108C10.0386 23.3031 10.3578 23.5404 10.7137 23.7094C11.0697 23.8783 11.4554 23.9754 11.8489 23.9953C12.2423 24.0151 12.6359 23.9572 13.007 23.825Z" fill="currentColor"/>
</svg>
