<svg width="24" height="24" viewBox="0 0 24 24" fill="none" xmlns="http://www.w3.org/2000/svg">
<path d="M20.1647 6.06776C20.1633 6.07765 20.1629 6.07992 20.1603 6.09758C20.1603 6.09758 20.1624 6.0832 20.1647 6.06776Z" fill="currentColor"/>
<path d="M20.1647 6.06778C20.1688 6.04055 20.1716 6.02195 20.1647 6.06778V6.06778Z" fill="currentColor"/>
<path d="M19.1486 1.80966C18.0372 0.54304 16.0284 0 13.4585 0H6.00005C5.47428 0 5.02747 0.38238 4.94518 0.90086L1.8396 20.597C1.77789 20.9854 2.07862 21.3372 2.47226 21.3372H7.07684L8.23329 14.0022L8.19743 14.2319C8.27976 13.7134 8.7232 13.331 9.24833 13.331H11.4364C15.7349 13.331 19.1007 11.5851 20.0839 6.53438C20.1131 6.38503 20.1603 6.09758 20.1603 6.09758C20.4391 4.22865 20.1583 2.96016 19.1486 1.80966Z" fill="currentColor"/>
<path d="M21.3258 7.05405C20.2566 12.0265 16.8465 14.6585 11.4365 14.6585H9.47406L8.01068 24H11.1936C11.653 24 12.044 23.6654 12.1157 23.212L12.1535 23.0142L12.8851 18.3777L12.9322 18.1215C13.0039 17.6681 13.3949 17.3335 13.8543 17.3335H14.4352C18.1953 17.3335 21.1396 15.8059 21.9999 11.3879C22.3447 9.6155 22.1795 8.12846 21.3258 7.05405Z" fill="currentColor"/>
</svg>
