<svg xmlns="http://www.w3.org/2000/svg" width="501" height="155" viewBox="0 0 501 155" version="1.1">
	<path d="M 352.750 16.083 C 351.079 17.913, 349.124 18, 309.547 18 C 265.001 18, 264.032 18.104, 261.425 23.145 C 256.779 32.129, 266.213 41.840, 275.366 37.496 C 281.533 34.570, 283.390 26.173, 278.922 21.417 L 276.651 19 287.826 19 C 293.972 19, 299 19.154, 299 19.343 C 299 19.531, 294.056 25.944, 288.013 33.593 L 277.026 47.500 277.013 88.849 L 277 130.198 273.894 133.099 L 270.788 136 312.229 136 L 353.670 136 354.847 123.750 C 356.343 108.169, 356.265 105.034, 354.521 110.554 C 351.224 120.990, 345.158 128.259, 336.500 132.147 C 329.664 135.217, 306.473 136.195, 302.484 133.582 L 299.966 131.932 300.233 106.216 L 300.500 80.500 310.750 80.215 C 316.852 80.045, 321.832 80.375, 323.054 81.029 C 325.709 82.450, 328.991 87.853, 328.996 90.809 C 328.998 92.079, 329.396 92.873, 329.879 92.574 C 330.363 92.276, 331.064 87.186, 331.438 81.265 C 331.811 75.344, 332.365 69.037, 332.670 67.250 C 333.345 63.283, 331.483 62.837, 330.695 66.777 C 329.916 70.670, 326.256 74.995, 322.364 76.621 C 320.343 77.466, 315.371 78, 309.532 78 L 300 78 300 48.500 L 300 19 317.250 19.010 C 333.426 19.019, 334.826 19.171, 339.740 21.459 C 345.947 24.349, 350.530 30.680, 351.605 37.850 C 352.506 43.858, 353.483 41.267, 354.377 30.500 C 354.742 26.100, 355.308 20.587, 355.634 18.250 C 356.275 13.658, 355.497 13.074, 352.750 16.083 M 22 18.889 C 22 19.377, 23.462 20.067, 25.250 20.420 C 27.038 20.774, 29.223 21.614, 30.106 22.286 C 32.403 24.037, 48.392 50.850, 53.489 61.500 C 61.476 78.191, 61.411 77.855, 61.791 104.416 C 61.980 117.569, 61.872 129.375, 61.552 130.650 C 61.207 132.022, 59.954 133.224, 58.485 133.593 C 52.128 135.189, 57.527 136, 74.500 136 C 91.423 136, 96.872 135.189, 90.570 133.607 C 85.017 132.213, 85 132.118, 85 102.755 L 85 75.653 69.477 48.769 C 60.939 33.983, 54.215 21.461, 54.536 20.942 C 54.856 20.424, 55.740 20, 56.500 20 C 57.260 20, 58.160 19.550, 58.500 19 C 58.904 18.347, 52.677 18, 40.559 18 C 30.352 18, 22 18.400, 22 18.889 M 102 19 C 102 19.550, 103.025 20, 104.277 20 C 111.084 20, 112.743 26.001, 108.555 35.471 C 107.210 38.512, 106.472 41, 106.913 41 C 107.355 41, 109.412 38.413, 111.484 35.250 C 118.399 24.697, 122.962 21.384, 132.068 20.305 C 142.317 19.092, 136.366 18, 119.500 18 C 108.500 18, 102 18.371, 102 19 M 183.553 20.250 C 183.931 21.488, 188.874 35.550, 194.536 51.500 C 200.198 67.450, 204.688 80.644, 204.512 80.820 C 204.337 80.996, 201.112 80.180, 197.347 79.006 C 188.444 76.232, 175.218 75.377, 165.298 76.935 C 157.927 78.092, 139.229 82.439, 138.502 83.164 C 138.316 83.349, 144.066 83.340, 151.279 83.145 C 172.751 82.562, 188.174 86.295, 201.773 95.363 C 212.233 102.338, 214.137 104.931, 218.923 118.713 C 221.256 125.430, 222.856 131.424, 222.480 132.033 C 222.103 132.642, 220.829 133.530, 219.648 134.007 C 218.315 134.544, 224.521 134.896, 236 134.933 C 254.355 134.992, 254.476 134.978, 251.500 133.158 C 249.850 132.150, 247.989 130.689, 247.364 129.912 C 246.739 129.135, 241.956 116.800, 236.735 102.500 C 231.514 88.200, 222.383 63.337, 216.444 47.250 L 205.647 18 194.256 18 C 182.906 18, 182.868 18.008, 183.553 20.250 M 367.353 22.250 C 367.672 24.587, 368.235 30.325, 368.605 35 C 369.512 46.463, 370.487 48.925, 371.399 42.052 C 373.239 28.181, 382.391 20.093, 397.250 19.206 L 405 18.743 405 75.386 L 405 132.029 401.750 134.011 L 398.500 135.993 417 135.965 L 435.500 135.937 432.750 133.885 L 430 131.833 430 75.417 L 430 19 435.822 19 C 443.002 19, 449.479 21.122, 454.216 25.026 C 458.909 28.895, 463 37.124, 463 42.696 C 463 45.063, 463.371 47, 463.825 47 C 464.279 47, 465.295 40.475, 466.084 32.500 L 467.518 18 417.145 18 L 366.773 18 367.353 22.250 M 158.602 118.417 C 155.308 124.037, 146.742 131.560, 141.528 133.412 C 137.758 134.751, 138.620 134.841, 155 134.831 C 166.838 134.823, 171.512 134.532, 169.445 133.932 C 167.765 133.443, 165.290 131.872, 163.945 130.441 C 161.823 128.181, 161.507 126.924, 161.556 120.919 C 161.587 117.113, 161.517 114, 161.401 114 C 161.285 114, 160.025 115.987, 158.602 118.417" stroke="none" fill="#f2f1f9" fill-rule="evenodd"/>
</svg>